<mxfile host="app.diagrams.net" modified="2023-04-05T05:00:33.442Z" agent="Mozilla/5.0 (Windows NT 10.0; Win64; x64) AppleWebKit/537.36 (KHTML, like Gecko) Chrome/111.0.0.0 Safari/537.36" etag="gTDqC70UNU26oG9uR_aQ" version="21.1.4" type="github">
  <diagram id="R2lEEEUBdFMjLlhIrx00" name="Page-1">
    <mxGraphModel dx="1970" dy="452" grid="1" gridSize="10" guides="1" tooltips="1" connect="1" arrows="1" fold="1" page="1" pageScale="1" pageWidth="850" pageHeight="1100" math="0" shadow="0" extFonts="Permanent Marker^https://fonts.googleapis.com/css?family=Permanent+Marker">
      <root>
        <mxCell id="0" />
        <mxCell id="1" parent="0" />
        <mxCell id="tJHlunaHGwE3_z8lCXSF-1" value="Pelicula" style="whiteSpace=wrap;html=1;align=center;fillColor=#d5e8d4;strokeColor=#82b366;" parent="1" vertex="1">
          <mxGeometry x="290" y="230" width="100" height="40" as="geometry" />
        </mxCell>
        <mxCell id="tJHlunaHGwE3_z8lCXSF-5" value="" style="endArrow=none;html=1;rounded=0;exitX=1;exitY=1;exitDx=0;exitDy=0;" parent="1" source="tJHlunaHGwE3_z8lCXSF-91" target="tJHlunaHGwE3_z8lCXSF-1" edge="1">
          <mxGeometry relative="1" as="geometry">
            <mxPoint x="270" y="190.0000000000001" as="sourcePoint" />
            <mxPoint x="610" y="280" as="targetPoint" />
          </mxGeometry>
        </mxCell>
        <mxCell id="tJHlunaHGwE3_z8lCXSF-7" value="" style="endArrow=none;html=1;rounded=0;exitX=0.26;exitY=0.975;exitDx=0;exitDy=0;exitPerimeter=0;" parent="1" source="tJHlunaHGwE3_z8lCXSF-92" target="tJHlunaHGwE3_z8lCXSF-1" edge="1">
          <mxGeometry relative="1" as="geometry">
            <mxPoint x="371" y="174" as="sourcePoint" />
            <mxPoint x="610" y="280" as="targetPoint" />
          </mxGeometry>
        </mxCell>
        <mxCell id="tJHlunaHGwE3_z8lCXSF-8" value="&lt;span style=&quot;border-bottom: 1px dotted&quot;&gt;Director&lt;/span&gt;" style="ellipse;whiteSpace=wrap;html=1;align=center;" parent="1" vertex="1">
          <mxGeometry x="410" y="170" width="100" height="40" as="geometry" />
        </mxCell>
        <mxCell id="tJHlunaHGwE3_z8lCXSF-9" value="" style="endArrow=none;html=1;rounded=0;entryX=0.75;entryY=0;entryDx=0;entryDy=0;" parent="1" source="tJHlunaHGwE3_z8lCXSF-95" target="tJHlunaHGwE3_z8lCXSF-1" edge="1">
          <mxGeometry relative="1" as="geometry">
            <mxPoint x="450" y="280" as="sourcePoint" />
            <mxPoint x="610" y="280" as="targetPoint" />
          </mxGeometry>
        </mxCell>
        <mxCell id="tJHlunaHGwE3_z8lCXSF-11" value="Actores" style="whiteSpace=wrap;html=1;align=center;fillColor=#d5e8d4;strokeColor=#82b366;" parent="1" vertex="1">
          <mxGeometry x="600" y="440" width="100" height="40" as="geometry" />
        </mxCell>
        <mxCell id="tJHlunaHGwE3_z8lCXSF-14" value="&lt;span style=&quot;border-bottom: 1px dotted&quot;&gt;Edad&lt;/span&gt;" style="ellipse;whiteSpace=wrap;html=1;align=center;" parent="1" vertex="1">
          <mxGeometry x="730" y="430" width="100" height="40" as="geometry" />
        </mxCell>
        <mxCell id="tJHlunaHGwE3_z8lCXSF-16" value="" style="endArrow=none;html=1;rounded=0;entryX=0.25;entryY=1;entryDx=0;entryDy=0;" parent="1" target="tJHlunaHGwE3_z8lCXSF-11" edge="1">
          <mxGeometry relative="1" as="geometry">
            <mxPoint x="570" y="510" as="sourcePoint" />
            <mxPoint x="660" y="440" as="targetPoint" />
          </mxGeometry>
        </mxCell>
        <mxCell id="tJHlunaHGwE3_z8lCXSF-17" value="" style="endArrow=none;html=1;rounded=0;exitX=1;exitY=0.5;exitDx=0;exitDy=0;" parent="1" source="tJHlunaHGwE3_z8lCXSF-11" target="tJHlunaHGwE3_z8lCXSF-97" edge="1">
          <mxGeometry relative="1" as="geometry">
            <mxPoint x="500" y="440" as="sourcePoint" />
            <mxPoint x="730" y="460" as="targetPoint" />
          </mxGeometry>
        </mxCell>
        <mxCell id="tJHlunaHGwE3_z8lCXSF-18" value="" style="endArrow=none;html=1;rounded=0;entryX=0.5;entryY=1;entryDx=0;entryDy=0;exitX=0.5;exitY=0;exitDx=0;exitDy=0;" parent="1" source="tJHlunaHGwE3_z8lCXSF-98" target="tJHlunaHGwE3_z8lCXSF-11" edge="1">
          <mxGeometry relative="1" as="geometry">
            <mxPoint x="670" y="510" as="sourcePoint" />
            <mxPoint x="660" y="440" as="targetPoint" />
          </mxGeometry>
        </mxCell>
        <mxCell id="tJHlunaHGwE3_z8lCXSF-19" value="PaisOrigen" style="ellipse;whiteSpace=wrap;html=1;align=center;" parent="1" vertex="1">
          <mxGeometry x="170" y="290" width="100" height="40" as="geometry" />
        </mxCell>
        <mxCell id="tJHlunaHGwE3_z8lCXSF-22" value="" style="endArrow=none;html=1;rounded=0;entryX=0;entryY=0.5;entryDx=0;entryDy=0;" parent="1" source="tJHlunaHGwE3_z8lCXSF-93" target="tJHlunaHGwE3_z8lCXSF-1" edge="1">
          <mxGeometry relative="1" as="geometry">
            <mxPoint x="450" y="280" as="sourcePoint" />
            <mxPoint x="610" y="280" as="targetPoint" />
          </mxGeometry>
        </mxCell>
        <mxCell id="tJHlunaHGwE3_z8lCXSF-23" value="SalaCine" style="whiteSpace=wrap;html=1;align=center;fillColor=#d5e8d4;strokeColor=#82b366;" parent="1" vertex="1">
          <mxGeometry x="-30" y="540" width="100" height="40" as="geometry" />
        </mxCell>
        <mxCell id="tJHlunaHGwE3_z8lCXSF-24" value="" style="fontSize=12;html=1;endArrow=ERoneToMany;startArrow=ERzeroToMany;rounded=0;entryX=0.5;entryY=0;entryDx=0;entryDy=0;" parent="1" source="tJHlunaHGwE3_z8lCXSF-1" target="tJHlunaHGwE3_z8lCXSF-58" edge="1">
          <mxGeometry width="100" height="100" relative="1" as="geometry">
            <mxPoint x="400" y="270" as="sourcePoint" />
            <mxPoint x="560" y="310" as="targetPoint" />
          </mxGeometry>
        </mxCell>
        <mxCell id="tJHlunaHGwE3_z8lCXSF-25" value="&lt;span style=&quot;border-bottom: 1px dotted&quot;&gt;Nombre&lt;/span&gt;" style="ellipse;whiteSpace=wrap;html=1;align=center;fillColor=#fff2cc;strokeColor=#d6b656;" parent="1" vertex="1">
          <mxGeometry x="360" y="400" width="100" height="40" as="geometry" />
        </mxCell>
        <mxCell id="tJHlunaHGwE3_z8lCXSF-26" value="Genero" style="whiteSpace=wrap;html=1;align=center;fillColor=#d5e8d4;strokeColor=#82b366;" parent="1" vertex="1">
          <mxGeometry x="420" y="340" width="100" height="40" as="geometry" />
        </mxCell>
        <mxCell id="tJHlunaHGwE3_z8lCXSF-31" value="" style="endArrow=none;html=1;rounded=0;" parent="1" source="tJHlunaHGwE3_z8lCXSF-25" target="tJHlunaHGwE3_z8lCXSF-26" edge="1">
          <mxGeometry relative="1" as="geometry">
            <mxPoint x="495" y="420" as="sourcePoint" />
            <mxPoint x="655" y="420" as="targetPoint" />
          </mxGeometry>
        </mxCell>
        <mxCell id="tJHlunaHGwE3_z8lCXSF-37" value="Id" style="ellipse;whiteSpace=wrap;html=1;align=center;" parent="1" vertex="1">
          <mxGeometry x="200" y="350" width="100" height="40" as="geometry" />
        </mxCell>
        <mxCell id="tJHlunaHGwE3_z8lCXSF-43" value="" style="endArrow=none;html=1;rounded=0;exitX=0.7;exitY=0.025;exitDx=0;exitDy=0;exitPerimeter=0;entryX=0;entryY=0.75;entryDx=0;entryDy=0;" parent="1" source="tJHlunaHGwE3_z8lCXSF-37" target="tJHlunaHGwE3_z8lCXSF-1" edge="1">
          <mxGeometry relative="1" as="geometry">
            <mxPoint x="290" y="260" as="sourcePoint" />
            <mxPoint x="305" y="270" as="targetPoint" />
          </mxGeometry>
        </mxCell>
        <mxCell id="tJHlunaHGwE3_z8lCXSF-45" value="" style="endArrow=none;html=1;rounded=0;exitX=0.86;exitY=-0.025;exitDx=0;exitDy=0;exitPerimeter=0;" parent="1" source="tJHlunaHGwE3_z8lCXSF-11" edge="1">
          <mxGeometry relative="1" as="geometry">
            <mxPoint x="340" y="520" as="sourcePoint" />
            <mxPoint x="710" y="420" as="targetPoint" />
          </mxGeometry>
        </mxCell>
        <mxCell id="tJHlunaHGwE3_z8lCXSF-46" value="Id" style="ellipse;whiteSpace=wrap;html=1;align=center;fillColor=#fff2cc;strokeColor=#d6b656;" parent="1" vertex="1">
          <mxGeometry x="480" y="400" width="100" height="40" as="geometry" />
        </mxCell>
        <mxCell id="tJHlunaHGwE3_z8lCXSF-47" value="" style="endArrow=none;html=1;rounded=0;entryX=0.75;entryY=1;entryDx=0;entryDy=0;" parent="1" source="tJHlunaHGwE3_z8lCXSF-46" target="tJHlunaHGwE3_z8lCXSF-26" edge="1">
          <mxGeometry relative="1" as="geometry">
            <mxPoint x="590" y="530" as="sourcePoint" />
            <mxPoint x="635" y="500" as="targetPoint" />
          </mxGeometry>
        </mxCell>
        <mxCell id="tJHlunaHGwE3_z8lCXSF-48" value="Id" style="ellipse;whiteSpace=wrap;html=1;align=center;" parent="1" vertex="1">
          <mxGeometry x="-110" y="480" width="100" height="40" as="geometry" />
        </mxCell>
        <mxCell id="tJHlunaHGwE3_z8lCXSF-49" value="" style="endArrow=none;html=1;rounded=0;" parent="1" source="tJHlunaHGwE3_z8lCXSF-102" target="tJHlunaHGwE3_z8lCXSF-23" edge="1">
          <mxGeometry relative="1" as="geometry">
            <mxPoint x="-100" y="570" as="sourcePoint" />
            <mxPoint x="60" y="570" as="targetPoint" />
          </mxGeometry>
        </mxCell>
        <mxCell id="tJHlunaHGwE3_z8lCXSF-51" value="" style="endArrow=none;html=1;rounded=0;" parent="1" source="tJHlunaHGwE3_z8lCXSF-103" target="tJHlunaHGwE3_z8lCXSF-23" edge="1">
          <mxGeometry relative="1" as="geometry">
            <mxPoint x="-60" y="570" as="sourcePoint" />
            <mxPoint x="14" y="551" as="targetPoint" />
          </mxGeometry>
        </mxCell>
        <mxCell id="tJHlunaHGwE3_z8lCXSF-57" value="" style="endArrow=none;html=1;rounded=0;" parent="1" source="tJHlunaHGwE3_z8lCXSF-66" target="tJHlunaHGwE3_z8lCXSF-58" edge="1">
          <mxGeometry relative="1" as="geometry">
            <mxPoint x="228.33425848836805" y="510.0111018604166" as="sourcePoint" />
            <mxPoint x="193" y="480" as="targetPoint" />
          </mxGeometry>
        </mxCell>
        <mxCell id="tJHlunaHGwE3_z8lCXSF-58" value="Cine" style="whiteSpace=wrap;html=1;align=center;fillColor=#d5e8d4;strokeColor=#82b366;" parent="1" vertex="1">
          <mxGeometry x="252.5" y="540" width="100" height="40" as="geometry" />
        </mxCell>
        <mxCell id="tJHlunaHGwE3_z8lCXSF-59" value="" style="edgeStyle=entityRelationEdgeStyle;fontSize=12;html=1;endArrow=ERoneToMany;rounded=0;entryX=1;entryY=0.5;entryDx=0;entryDy=0;exitX=0;exitY=0.5;exitDx=0;exitDy=0;" parent="1" source="tJHlunaHGwE3_z8lCXSF-58" target="tJHlunaHGwE3_z8lCXSF-23" edge="1">
          <mxGeometry width="100" height="100" relative="1" as="geometry">
            <mxPoint x="140" y="610" as="sourcePoint" />
            <mxPoint x="450" y="410" as="targetPoint" />
          </mxGeometry>
        </mxCell>
        <mxCell id="tJHlunaHGwE3_z8lCXSF-61" value="Id" style="ellipse;whiteSpace=wrap;html=1;align=center;" parent="1" vertex="1">
          <mxGeometry x="312.5" y="480" width="100" height="40" as="geometry" />
        </mxCell>
        <mxCell id="tJHlunaHGwE3_z8lCXSF-63" value="" style="endArrow=none;html=1;rounded=0;entryX=0.25;entryY=0;entryDx=0;entryDy=0;" parent="1" source="tJHlunaHGwE3_z8lCXSF-101" target="tJHlunaHGwE3_z8lCXSF-58" edge="1">
          <mxGeometry relative="1" as="geometry">
            <mxPoint x="252.5" y="510" as="sourcePoint" />
            <mxPoint x="96.5" y="551" as="targetPoint" />
            <Array as="points">
              <mxPoint x="267.5" y="530" />
            </Array>
          </mxGeometry>
        </mxCell>
        <mxCell id="tJHlunaHGwE3_z8lCXSF-64" value="" style="endArrow=none;html=1;rounded=0;entryX=0.62;entryY=0;entryDx=0;entryDy=0;entryPerimeter=0;" parent="1" target="tJHlunaHGwE3_z8lCXSF-58" edge="1">
          <mxGeometry relative="1" as="geometry">
            <mxPoint x="342.5" y="520" as="sourcePoint" />
            <mxPoint x="287.5" y="550" as="targetPoint" />
          </mxGeometry>
        </mxCell>
        <mxCell id="tJHlunaHGwE3_z8lCXSF-66" value="Point" style="whiteSpace=wrap;html=1;align=center;fillColor=#d5e8d4;strokeColor=#82b366;" parent="1" vertex="1">
          <mxGeometry x="245" y="690" width="100" height="40" as="geometry" />
        </mxCell>
        <mxCell id="tJHlunaHGwE3_z8lCXSF-77" value="Latitud" style="ellipse;whiteSpace=wrap;html=1;align=center;fillColor=#fff2cc;strokeColor=#d6b656;" parent="1" vertex="1">
          <mxGeometry x="375" y="690" width="100" height="40" as="geometry" />
        </mxCell>
        <mxCell id="tJHlunaHGwE3_z8lCXSF-78" value="" style="endArrow=none;html=1;rounded=0;exitX=1;exitY=0.5;exitDx=0;exitDy=0;" parent="1" source="tJHlunaHGwE3_z8lCXSF-66" target="tJHlunaHGwE3_z8lCXSF-77" edge="1">
          <mxGeometry relative="1" as="geometry">
            <mxPoint x="321" y="740" as="sourcePoint" />
            <mxPoint x="372.84039567883474" y="764.6859027042069" as="targetPoint" />
          </mxGeometry>
        </mxCell>
        <mxCell id="tJHlunaHGwE3_z8lCXSF-83" value="&lt;span style=&quot;border-bottom: 1px dotted&quot;&gt;Nombre&lt;/span&gt;" style="ellipse;whiteSpace=wrap;html=1;align=center;" parent="1" vertex="1">
          <mxGeometry x="150" y="150" width="100" height="40" as="geometry" />
        </mxCell>
        <mxCell id="tJHlunaHGwE3_z8lCXSF-87" value="PaisOrigen" style="ellipse;whiteSpace=wrap;html=1;align=center;" parent="1" vertex="1">
          <mxGeometry x="170" y="290" width="100" height="40" as="geometry" />
        </mxCell>
        <mxCell id="tJHlunaHGwE3_z8lCXSF-88" value="Id" style="ellipse;whiteSpace=wrap;html=1;align=center;" parent="1" vertex="1">
          <mxGeometry x="200" y="350" width="100" height="40" as="geometry" />
        </mxCell>
        <mxCell id="tJHlunaHGwE3_z8lCXSF-89" value="&lt;span style=&quot;border-bottom: 1px dotted&quot;&gt;Director&lt;/span&gt;" style="ellipse;whiteSpace=wrap;html=1;align=center;" parent="1" vertex="1">
          <mxGeometry x="410" y="170" width="100" height="40" as="geometry" />
        </mxCell>
        <mxCell id="tJHlunaHGwE3_z8lCXSF-91" value="&lt;span style=&quot;border-bottom: 1px dotted&quot;&gt;Nombre&lt;/span&gt;" style="ellipse;whiteSpace=wrap;html=1;align=center;fillColor=#fff2cc;strokeColor=#d6b656;" parent="1" vertex="1">
          <mxGeometry x="150" y="150" width="100" height="40" as="geometry" />
        </mxCell>
        <mxCell id="tJHlunaHGwE3_z8lCXSF-92" value="&lt;span style=&quot;border-bottom: 1px dotted&quot;&gt;FechaEstreno&lt;/span&gt;" style="ellipse;whiteSpace=wrap;html=1;align=center;fillColor=#fff2cc;strokeColor=#d6b656;" parent="1" vertex="1">
          <mxGeometry x="395" y="110" width="100" height="40" as="geometry" />
        </mxCell>
        <mxCell id="tJHlunaHGwE3_z8lCXSF-93" value="PaisOrigen" style="ellipse;whiteSpace=wrap;html=1;align=center;fillColor=#fff2cc;strokeColor=#d6b656;" parent="1" vertex="1">
          <mxGeometry x="170" y="290" width="100" height="40" as="geometry" />
        </mxCell>
        <mxCell id="tJHlunaHGwE3_z8lCXSF-94" value="Id" style="ellipse;whiteSpace=wrap;html=1;align=center;fillColor=#fff2cc;strokeColor=#d6b656;" parent="1" vertex="1">
          <mxGeometry x="200" y="350" width="100" height="40" as="geometry" />
        </mxCell>
        <mxCell id="tJHlunaHGwE3_z8lCXSF-95" value="&lt;span style=&quot;border-bottom: 1px dotted&quot;&gt;Director&lt;/span&gt;" style="ellipse;whiteSpace=wrap;html=1;align=center;fillColor=#fff2cc;strokeColor=#d6b656;" parent="1" vertex="1">
          <mxGeometry x="410" y="170" width="100" height="40" as="geometry" />
        </mxCell>
        <mxCell id="tJHlunaHGwE3_z8lCXSF-96" value="Id" style="ellipse;whiteSpace=wrap;html=1;align=center;fillColor=#fff2cc;strokeColor=#d6b656;" parent="1" vertex="1">
          <mxGeometry x="670" y="380" width="100" height="40" as="geometry" />
        </mxCell>
        <mxCell id="tJHlunaHGwE3_z8lCXSF-97" value="&lt;span style=&quot;border-bottom: 1px dotted&quot;&gt;Edad&lt;/span&gt;" style="ellipse;whiteSpace=wrap;html=1;align=center;fillColor=#fff2cc;strokeColor=#d6b656;" parent="1" vertex="1">
          <mxGeometry x="730" y="430" width="100" height="40" as="geometry" />
        </mxCell>
        <mxCell id="tJHlunaHGwE3_z8lCXSF-98" value="&lt;span style=&quot;border-bottom: 1px dotted&quot;&gt;Nombre&lt;/span&gt;" style="ellipse;whiteSpace=wrap;html=1;align=center;fillColor=#fff2cc;strokeColor=#d6b656;" parent="1" vertex="1">
          <mxGeometry x="620" y="510" width="100" height="40" as="geometry" />
        </mxCell>
        <mxCell id="tJHlunaHGwE3_z8lCXSF-99" value="&lt;span style=&quot;border-bottom: 1px dotted&quot;&gt;PaisOrigen&lt;/span&gt;" style="ellipse;whiteSpace=wrap;html=1;align=center;fillColor=#fff2cc;strokeColor=#d6b656;" parent="1" vertex="1">
          <mxGeometry x="515" y="510" width="100" height="40" as="geometry" />
        </mxCell>
        <mxCell id="tJHlunaHGwE3_z8lCXSF-100" value="Id" style="ellipse;whiteSpace=wrap;html=1;align=center;fillColor=#fff2cc;strokeColor=#d6b656;" parent="1" vertex="1">
          <mxGeometry x="312.5" y="480" width="100" height="40" as="geometry" />
        </mxCell>
        <mxCell id="tJHlunaHGwE3_z8lCXSF-101" value="&lt;span style=&quot;border-bottom: 1px dotted&quot;&gt;Nombre&lt;/span&gt;" style="ellipse;whiteSpace=wrap;html=1;align=center;fillColor=#fff2cc;strokeColor=#d6b656;" parent="1" vertex="1">
          <mxGeometry x="177.5" y="480" width="100" height="40" as="geometry" />
        </mxCell>
        <mxCell id="tJHlunaHGwE3_z8lCXSF-102" value="Id" style="ellipse;whiteSpace=wrap;html=1;align=center;fillColor=#fff2cc;strokeColor=#d6b656;" parent="1" vertex="1">
          <mxGeometry x="-110" y="480" width="100" height="40" as="geometry" />
        </mxCell>
        <mxCell id="tJHlunaHGwE3_z8lCXSF-103" value="&lt;span style=&quot;border-bottom: 1px dotted&quot;&gt;Nombre&lt;/span&gt;" style="ellipse;whiteSpace=wrap;html=1;align=center;fillColor=#fff2cc;strokeColor=#d6b656;" parent="1" vertex="1">
          <mxGeometry x="50" y="470" width="100" height="40" as="geometry" />
        </mxCell>
        <mxCell id="tJHlunaHGwE3_z8lCXSF-105" value="Longitud" style="ellipse;whiteSpace=wrap;html=1;align=center;fillColor=#fff2cc;strokeColor=#d6b656;" parent="1" vertex="1">
          <mxGeometry x="115" y="690" width="100" height="40" as="geometry" />
        </mxCell>
        <mxCell id="tJHlunaHGwE3_z8lCXSF-106" value="Id" style="ellipse;whiteSpace=wrap;html=1;align=center;fillColor=#fff2cc;strokeColor=#d6b656;" parent="1" vertex="1">
          <mxGeometry x="245" y="760" width="100" height="40" as="geometry" />
        </mxCell>
        <mxCell id="tJHlunaHGwE3_z8lCXSF-108" value="Comentarios" style="whiteSpace=wrap;html=1;align=center;fillColor=#d5e8d4;strokeColor=#82b366;" parent="1" vertex="1">
          <mxGeometry x="580" y="105" width="100" height="40" as="geometry" />
        </mxCell>
        <mxCell id="tJHlunaHGwE3_z8lCXSF-110" value="Id" style="ellipse;whiteSpace=wrap;html=1;align=center;fillColor=#fff2cc;strokeColor=#d6b656;" parent="1" vertex="1">
          <mxGeometry x="500" y="45" width="100" height="40" as="geometry" />
        </mxCell>
        <mxCell id="tJHlunaHGwE3_z8lCXSF-111" value="" style="endArrow=none;html=1;rounded=0;" parent="1" source="tJHlunaHGwE3_z8lCXSF-110" target="tJHlunaHGwE3_z8lCXSF-108" edge="1">
          <mxGeometry relative="1" as="geometry">
            <mxPoint x="350" y="285" as="sourcePoint" />
            <mxPoint x="510" y="285" as="targetPoint" />
          </mxGeometry>
        </mxCell>
        <mxCell id="tJHlunaHGwE3_z8lCXSF-112" value="Comentario" style="ellipse;whiteSpace=wrap;html=1;align=center;fillColor=#fff2cc;strokeColor=#d6b656;" parent="1" vertex="1">
          <mxGeometry x="615" y="35" width="100" height="40" as="geometry" />
        </mxCell>
        <mxCell id="tJHlunaHGwE3_z8lCXSF-113" value="" style="endArrow=none;html=1;rounded=0;" parent="1" source="tJHlunaHGwE3_z8lCXSF-108" edge="1">
          <mxGeometry relative="1" as="geometry">
            <mxPoint x="609.9999999999998" y="105" as="sourcePoint" />
            <mxPoint x="664.705882352941" y="74.00000000000011" as="targetPoint" />
          </mxGeometry>
        </mxCell>
        <mxCell id="tJHlunaHGwE3_z8lCXSF-114" value="MeGusta" style="ellipse;whiteSpace=wrap;html=1;align=center;fillColor=#fff2cc;strokeColor=#d6b656;" parent="1" vertex="1">
          <mxGeometry x="715" y="105" width="100" height="40" as="geometry" />
        </mxCell>
        <mxCell id="tJHlunaHGwE3_z8lCXSF-115" value="" style="endArrow=none;html=1;rounded=0;entryX=0;entryY=0.5;entryDx=0;entryDy=0;" parent="1" target="tJHlunaHGwE3_z8lCXSF-114" edge="1">
          <mxGeometry relative="1" as="geometry">
            <mxPoint x="680" y="125" as="sourcePoint" />
            <mxPoint x="674.705882352941" y="84.00000000000011" as="targetPoint" />
          </mxGeometry>
        </mxCell>
        <mxCell id="tJHlunaHGwE3_z8lCXSF-116" value="Tipo" style="whiteSpace=wrap;html=1;align=center;fillColor=#d5e8d4;strokeColor=#82b366;" parent="1" vertex="1">
          <mxGeometry x="-27" y="400" width="100" height="40" as="geometry" />
        </mxCell>
        <mxCell id="tJHlunaHGwE3_z8lCXSF-117" value="&lt;span style=&quot;border-bottom: 1px dotted&quot;&gt;Nombre&lt;/span&gt;" style="ellipse;whiteSpace=wrap;html=1;align=center;fillColor=#fff2cc;strokeColor=#d6b656;" parent="1" vertex="1">
          <mxGeometry x="-90" y="330" width="100" height="40" as="geometry" />
        </mxCell>
        <mxCell id="tJHlunaHGwE3_z8lCXSF-118" value="Id" style="ellipse;whiteSpace=wrap;html=1;align=center;fillColor=#fff2cc;strokeColor=#d6b656;" parent="1" vertex="1">
          <mxGeometry x="40" y="330" width="100" height="40" as="geometry" />
        </mxCell>
        <mxCell id="tJHlunaHGwE3_z8lCXSF-119" value="" style="endArrow=none;html=1;rounded=0;" parent="1" source="tJHlunaHGwE3_z8lCXSF-117" target="tJHlunaHGwE3_z8lCXSF-116" edge="1">
          <mxGeometry relative="1" as="geometry">
            <mxPoint x="-190" y="390" as="sourcePoint" />
            <mxPoint x="-30" y="390" as="targetPoint" />
            <Array as="points">
              <mxPoint x="-10" y="390" />
            </Array>
          </mxGeometry>
        </mxCell>
        <mxCell id="tJHlunaHGwE3_z8lCXSF-120" value="" style="endArrow=none;html=1;rounded=0;" parent="1" source="tJHlunaHGwE3_z8lCXSF-118" target="tJHlunaHGwE3_z8lCXSF-116" edge="1">
          <mxGeometry relative="1" as="geometry">
            <mxPoint x="-190" y="390" as="sourcePoint" />
            <mxPoint x="-30" y="390" as="targetPoint" />
          </mxGeometry>
        </mxCell>
        <mxCell id="tJHlunaHGwE3_z8lCXSF-121" value="Resumen" style="ellipse;whiteSpace=wrap;html=1;align=center;fillColor=#fff2cc;strokeColor=#d6b656;" parent="1" vertex="1">
          <mxGeometry x="220" y="100" width="100" height="40" as="geometry" />
        </mxCell>
        <mxCell id="tJHlunaHGwE3_z8lCXSF-122" value="" style="endArrow=none;html=1;rounded=0;entryX=0.611;entryY=1.011;entryDx=0;entryDy=0;entryPerimeter=0;" parent="1" source="tJHlunaHGwE3_z8lCXSF-1" target="tJHlunaHGwE3_z8lCXSF-121" edge="1">
          <mxGeometry relative="1" as="geometry">
            <mxPoint x="350" y="200" as="sourcePoint" />
            <mxPoint x="510" y="200" as="targetPoint" />
          </mxGeometry>
        </mxCell>
        <mxCell id="tJHlunaHGwE3_z8lCXSF-123" value="Biografia" style="ellipse;whiteSpace=wrap;html=1;align=center;fillColor=#fff2cc;strokeColor=#d6b656;" parent="1" vertex="1">
          <mxGeometry x="730" y="490" width="100" height="40" as="geometry" />
        </mxCell>
        <mxCell id="mtr05lMuGRQ83ZZ1pHc--1" value="&lt;span style=&quot;border-bottom: 1px dotted&quot;&gt;PosterLink&lt;/span&gt;" style="ellipse;whiteSpace=wrap;html=1;align=center;fillColor=#fff2cc;strokeColor=#d6b656;" parent="1" vertex="1">
          <mxGeometry x="321" y="300" width="100" height="40" as="geometry" />
        </mxCell>
        <mxCell id="mtr05lMuGRQ83ZZ1pHc--2" value="" style="endArrow=none;html=1;rounded=0;" parent="1" target="mtr05lMuGRQ83ZZ1pHc--1" edge="1">
          <mxGeometry relative="1" as="geometry">
            <mxPoint x="350" y="270" as="sourcePoint" />
            <mxPoint x="500" y="240" as="targetPoint" />
          </mxGeometry>
        </mxCell>
        <mxCell id="iW_pZbnp_ivnEEt0ShDb-1" value="Criticas" style="whiteSpace=wrap;html=1;align=center;fillColor=#d5e8d4;strokeColor=#82b366;" parent="1" vertex="1">
          <mxGeometry x="20" y="130" width="100" height="40" as="geometry" />
        </mxCell>
        <mxCell id="iW_pZbnp_ivnEEt0ShDb-3" value="Contenido" style="ellipse;whiteSpace=wrap;html=1;align=center;fillColor=#fff2cc;strokeColor=#d6b656;" parent="1" vertex="1">
          <mxGeometry y="60" width="100" height="40" as="geometry" />
        </mxCell>
        <mxCell id="iW_pZbnp_ivnEEt0ShDb-4" value="Autor" style="ellipse;whiteSpace=wrap;html=1;align=center;fillColor=#fff2cc;strokeColor=#d6b656;" parent="1" vertex="1">
          <mxGeometry x="120" y="60" width="100" height="40" as="geometry" />
        </mxCell>
        <mxCell id="Wgol9Mu29P_vfPn5DOQJ-2" value="" style="endArrow=none;html=1;rounded=0;exitX=1;exitY=0.5;exitDx=0;exitDy=0;" parent="1" source="tJHlunaHGwE3_z8lCXSF-105" target="tJHlunaHGwE3_z8lCXSF-66" edge="1">
          <mxGeometry relative="1" as="geometry">
            <mxPoint x="355" y="720" as="sourcePoint" />
            <mxPoint x="385" y="720" as="targetPoint" />
          </mxGeometry>
        </mxCell>
        <mxCell id="Wgol9Mu29P_vfPn5DOQJ-4" value="" style="endArrow=none;html=1;rounded=0;exitX=0.5;exitY=1;exitDx=0;exitDy=0;entryX=0.5;entryY=0;entryDx=0;entryDy=0;" parent="1" source="tJHlunaHGwE3_z8lCXSF-66" target="tJHlunaHGwE3_z8lCXSF-106" edge="1">
          <mxGeometry relative="1" as="geometry">
            <mxPoint x="355" y="720" as="sourcePoint" />
            <mxPoint x="385" y="720" as="targetPoint" />
          </mxGeometry>
        </mxCell>
        <mxCell id="Wgol9Mu29P_vfPn5DOQJ-5" value="" style="endArrow=none;html=1;rounded=0;exitX=0.57;exitY=-0.025;exitDx=0;exitDy=0;exitPerimeter=0;entryX=0.5;entryY=1;entryDx=0;entryDy=0;" parent="1" source="iW_pZbnp_ivnEEt0ShDb-1" target="iW_pZbnp_ivnEEt0ShDb-4" edge="1">
          <mxGeometry relative="1" as="geometry">
            <mxPoint x="653.6101499423298" y="140" as="sourcePoint" />
            <mxPoint x="674.705882352941" y="109.00000000000011" as="targetPoint" />
          </mxGeometry>
        </mxCell>
        <mxCell id="Wgol9Mu29P_vfPn5DOQJ-6" value="" style="endArrow=none;html=1;rounded=0;exitX=0.5;exitY=0;exitDx=0;exitDy=0;" parent="1" source="iW_pZbnp_ivnEEt0ShDb-1" target="iW_pZbnp_ivnEEt0ShDb-3" edge="1">
          <mxGeometry relative="1" as="geometry">
            <mxPoint x="87" y="139" as="sourcePoint" />
            <mxPoint x="180" y="110" as="targetPoint" />
          </mxGeometry>
        </mxCell>
        <mxCell id="Wgol9Mu29P_vfPn5DOQJ-7" value="Id" style="ellipse;whiteSpace=wrap;html=1;align=center;fillColor=#fff2cc;strokeColor=#d6b656;" parent="1" vertex="1">
          <mxGeometry x="10" y="210" width="100" height="40" as="geometry" />
        </mxCell>
        <mxCell id="Wgol9Mu29P_vfPn5DOQJ-8" value="" style="endArrow=none;html=1;rounded=0;" parent="1" target="Wgol9Mu29P_vfPn5DOQJ-7" edge="1">
          <mxGeometry relative="1" as="geometry">
            <mxPoint x="60" y="170" as="sourcePoint" />
            <mxPoint x="318.22105850781895" y="240" as="targetPoint" />
          </mxGeometry>
        </mxCell>
        <mxCell id="Wgol9Mu29P_vfPn5DOQJ-9" value="CineOferta" style="whiteSpace=wrap;html=1;align=center;fillColor=#d5e8d4;strokeColor=#82b366;" parent="1" vertex="1">
          <mxGeometry x="540" y="670" width="100" height="40" as="geometry" />
        </mxCell>
        <mxCell id="Wgol9Mu29P_vfPn5DOQJ-12" value="&lt;span style=&quot;border-bottom: 1px dotted&quot;&gt;Id&lt;/span&gt;" style="ellipse;whiteSpace=wrap;html=1;align=center;fillColor=#fff2cc;strokeColor=#d6b656;" parent="1" vertex="1">
          <mxGeometry x="660" y="680" width="100" height="40" as="geometry" />
        </mxCell>
        <mxCell id="Wgol9Mu29P_vfPn5DOQJ-16" value="&lt;span style=&quot;border-bottom: 1px dotted&quot;&gt;FechaInicio&lt;/span&gt;" style="ellipse;whiteSpace=wrap;html=1;align=center;fillColor=#fff2cc;strokeColor=#d6b656;" parent="1" vertex="1">
          <mxGeometry x="475" y="720" width="100" height="40" as="geometry" />
        </mxCell>
        <mxCell id="Wgol9Mu29P_vfPn5DOQJ-17" value="&lt;span style=&quot;border-bottom: 1px dotted&quot;&gt;FechaFin&lt;/span&gt;" style="ellipse;whiteSpace=wrap;html=1;align=center;fillColor=#fff2cc;strokeColor=#d6b656;" parent="1" vertex="1">
          <mxGeometry x="640" y="740" width="100" height="40" as="geometry" />
        </mxCell>
        <mxCell id="Wgol9Mu29P_vfPn5DOQJ-18" value="" style="endArrow=none;html=1;rounded=0;entryX=0.5;entryY=0;entryDx=0;entryDy=0;" parent="1" source="Wgol9Mu29P_vfPn5DOQJ-9" target="Wgol9Mu29P_vfPn5DOQJ-17" edge="1">
          <mxGeometry relative="1" as="geometry">
            <mxPoint x="600" y="720" as="sourcePoint" />
            <mxPoint x="664.6446609406726" y="745.8578643762692" as="targetPoint" />
          </mxGeometry>
        </mxCell>
        <mxCell id="Wgol9Mu29P_vfPn5DOQJ-19" value="" style="endArrow=none;html=1;rounded=0;entryX=1;entryY=0;entryDx=0;entryDy=0;" parent="1" target="Wgol9Mu29P_vfPn5DOQJ-16" edge="1" source="Wgol9Mu29P_vfPn5DOQJ-9">
          <mxGeometry relative="1" as="geometry">
            <mxPoint x="590" y="710" as="sourcePoint" />
            <mxPoint x="610" y="780" as="targetPoint" />
          </mxGeometry>
        </mxCell>
        <mxCell id="Wgol9Mu29P_vfPn5DOQJ-20" value="" style="endArrow=none;html=1;rounded=0;exitX=1;exitY=0.5;exitDx=0;exitDy=0;" parent="1" source="Wgol9Mu29P_vfPn5DOQJ-9" target="Wgol9Mu29P_vfPn5DOQJ-12" edge="1">
          <mxGeometry relative="1" as="geometry">
            <mxPoint x="600" y="720" as="sourcePoint" />
            <mxPoint x="664.6446609406726" y="745.8578643762692" as="targetPoint" />
          </mxGeometry>
        </mxCell>
        <mxCell id="Wgol9Mu29P_vfPn5DOQJ-21" value="" style="fontSize=12;html=1;endArrow=ERzeroToMany;startArrow=ERmandOne;rounded=0;exitX=0.92;exitY=0.975;exitDx=0;exitDy=0;exitPerimeter=0;entryX=0.5;entryY=0;entryDx=0;entryDy=0;" parent="1" source="tJHlunaHGwE3_z8lCXSF-1" target="tJHlunaHGwE3_z8lCXSF-26" edge="1">
          <mxGeometry width="100" height="100" relative="1" as="geometry">
            <mxPoint x="280" y="390" as="sourcePoint" />
            <mxPoint x="460" y="360" as="targetPoint" />
            <Array as="points">
              <mxPoint x="430" y="310" />
            </Array>
          </mxGeometry>
        </mxCell>
        <mxCell id="Wgol9Mu29P_vfPn5DOQJ-22" value="PeliculaActores" style="shape=rhombus;perimeter=rhombusPerimeter;whiteSpace=wrap;html=1;align=center;fillColor=#e1d5e7;strokeColor=#9673a6;" parent="1" vertex="1">
          <mxGeometry x="590" y="230" width="120" height="60" as="geometry" />
        </mxCell>
        <mxCell id="Wgol9Mu29P_vfPn5DOQJ-23" value="" style="fontSize=12;html=1;endArrow=ERzeroToMany;startArrow=ERmandOne;rounded=0;exitX=1;exitY=0.75;exitDx=0;exitDy=0;" parent="1" source="tJHlunaHGwE3_z8lCXSF-1" target="Wgol9Mu29P_vfPn5DOQJ-22" edge="1">
          <mxGeometry width="100" height="100" relative="1" as="geometry">
            <mxPoint x="280" y="290" as="sourcePoint" />
            <mxPoint x="380" y="190" as="targetPoint" />
          </mxGeometry>
        </mxCell>
        <mxCell id="Wgol9Mu29P_vfPn5DOQJ-24" value="" style="fontSize=12;html=1;endArrow=ERzeroToMany;startArrow=ERmandOne;rounded=0;exitX=0.5;exitY=0;exitDx=0;exitDy=0;entryX=0.5;entryY=1;entryDx=0;entryDy=0;" parent="1" source="tJHlunaHGwE3_z8lCXSF-11" target="Wgol9Mu29P_vfPn5DOQJ-22" edge="1">
          <mxGeometry width="100" height="100" relative="1" as="geometry">
            <mxPoint x="280" y="290" as="sourcePoint" />
            <mxPoint x="380" y="190" as="targetPoint" />
          </mxGeometry>
        </mxCell>
        <mxCell id="Wgol9Mu29P_vfPn5DOQJ-25" value="&lt;span style=&quot;border-bottom: 1px dotted&quot;&gt;PeliculaId&lt;/span&gt;" style="ellipse;whiteSpace=wrap;html=1;align=center;fillColor=#fff2cc;strokeColor=#d6b656;" parent="1" vertex="1">
          <mxGeometry x="520" y="286" width="80" height="40" as="geometry" />
        </mxCell>
        <mxCell id="Wgol9Mu29P_vfPn5DOQJ-26" value="&lt;span style=&quot;border-bottom: 1px dotted&quot;&gt;ActorId&lt;/span&gt;" style="ellipse;whiteSpace=wrap;html=1;align=center;fillColor=#fff2cc;strokeColor=#d6b656;" parent="1" vertex="1">
          <mxGeometry x="519" y="200" width="80" height="40" as="geometry" />
        </mxCell>
        <mxCell id="Wgol9Mu29P_vfPn5DOQJ-28" value="" style="endArrow=none;html=1;rounded=0;entryX=1;entryY=1;entryDx=0;entryDy=0;exitX=0.01;exitY=0.325;exitDx=0;exitDy=0;exitPerimeter=0;" parent="1" source="tJHlunaHGwE3_z8lCXSF-123" target="tJHlunaHGwE3_z8lCXSF-11" edge="1">
          <mxGeometry relative="1" as="geometry">
            <mxPoint x="680" y="520" as="sourcePoint" />
            <mxPoint x="660" y="490" as="targetPoint" />
          </mxGeometry>
        </mxCell>
        <mxCell id="Wgol9Mu29P_vfPn5DOQJ-31" value="" style="endArrow=none;html=1;rounded=0;exitX=1;exitY=0;exitDx=0;exitDy=0;entryX=0;entryY=1;entryDx=0;entryDy=0;" parent="1" source="Wgol9Mu29P_vfPn5DOQJ-25" target="Wgol9Mu29P_vfPn5DOQJ-22" edge="1">
          <mxGeometry relative="1" as="geometry">
            <mxPoint x="696" y="449" as="sourcePoint" />
            <mxPoint x="720" y="430" as="targetPoint" />
          </mxGeometry>
        </mxCell>
        <mxCell id="Wgol9Mu29P_vfPn5DOQJ-34" value="" style="endArrow=none;html=1;rounded=0;exitX=0;exitY=0;exitDx=0;exitDy=0;" parent="1" source="Wgol9Mu29P_vfPn5DOQJ-22" target="Wgol9Mu29P_vfPn5DOQJ-26" edge="1">
          <mxGeometry relative="1" as="geometry">
            <mxPoint x="598.2842712474621" y="305.85786437626894" as="sourcePoint" />
            <mxPoint x="590" y="230" as="targetPoint" />
          </mxGeometry>
        </mxCell>
        <mxCell id="Wgol9Mu29P_vfPn5DOQJ-35" value="&lt;span style=&quot;border-bottom: 1px dotted&quot;&gt;EsPrincipal&lt;/span&gt;" style="ellipse;whiteSpace=wrap;html=1;align=center;fillColor=#fff2cc;strokeColor=#d6b656;" parent="1" vertex="1">
          <mxGeometry x="700" y="200" width="80" height="40" as="geometry" />
        </mxCell>
        <mxCell id="Wgol9Mu29P_vfPn5DOQJ-36" value="" style="endArrow=none;html=1;rounded=0;exitX=1;exitY=0;exitDx=0;exitDy=0;" parent="1" source="Wgol9Mu29P_vfPn5DOQJ-22" target="Wgol9Mu29P_vfPn5DOQJ-35" edge="1">
          <mxGeometry relative="1" as="geometry">
            <mxPoint x="630" y="255" as="sourcePoint" />
            <mxPoint x="605" y="244" as="targetPoint" />
          </mxGeometry>
        </mxCell>
        <mxCell id="Wgol9Mu29P_vfPn5DOQJ-37" value="&lt;span style=&quot;border-bottom: 1px dotted&quot;&gt;Personaje&lt;/span&gt;" style="ellipse;whiteSpace=wrap;html=1;align=center;fillColor=#fff2cc;strokeColor=#d6b656;" parent="1" vertex="1">
          <mxGeometry x="710" y="280" width="80" height="40" as="geometry" />
        </mxCell>
        <mxCell id="Wgol9Mu29P_vfPn5DOQJ-38" value="" style="endArrow=none;html=1;rounded=0;exitX=0.7;exitY=0.833;exitDx=0;exitDy=0;entryX=0;entryY=0.5;entryDx=0;entryDy=0;exitPerimeter=0;" parent="1" source="Wgol9Mu29P_vfPn5DOQJ-22" target="Wgol9Mu29P_vfPn5DOQJ-37" edge="1">
          <mxGeometry relative="1" as="geometry">
            <mxPoint x="690" y="255" as="sourcePoint" />
            <mxPoint x="719.2711488160946" y="242.80368799329392" as="targetPoint" />
          </mxGeometry>
        </mxCell>
        <mxCell id="Wgol9Mu29P_vfPn5DOQJ-39" value="&lt;span style=&quot;border-bottom: 1px dotted&quot;&gt;Id&lt;/span&gt;" style="ellipse;whiteSpace=wrap;html=1;align=center;fillColor=#fff2cc;strokeColor=#d6b656;" parent="1" vertex="1">
          <mxGeometry x="610" y="180" width="80" height="40" as="geometry" />
        </mxCell>
        <mxCell id="Wgol9Mu29P_vfPn5DOQJ-40" value="" style="endArrow=none;html=1;rounded=0;exitX=0.5;exitY=0;exitDx=0;exitDy=0;entryX=0.5;entryY=1;entryDx=0;entryDy=0;" parent="1" source="Wgol9Mu29P_vfPn5DOQJ-22" target="Wgol9Mu29P_vfPn5DOQJ-39" edge="1">
          <mxGeometry relative="1" as="geometry">
            <mxPoint x="690" y="255" as="sourcePoint" />
            <mxPoint x="719.2711488160946" y="242.80368799329392" as="targetPoint" />
          </mxGeometry>
        </mxCell>
        <mxCell id="XWVS49WZBapcxWvo3n6D-1" value="&lt;span style=&quot;border-bottom: 1px dotted&quot;&gt;EnCartelera&lt;/span&gt;" style="ellipse;whiteSpace=wrap;html=1;align=center;fillColor=#fff2cc;strokeColor=#d6b656;" parent="1" vertex="1">
          <mxGeometry x="320" y="70" width="100" height="40" as="geometry" />
        </mxCell>
        <mxCell id="XWVS49WZBapcxWvo3n6D-2" value="" style="endArrow=none;html=1;rounded=0;exitX=0.39;exitY=0.975;exitDx=0;exitDy=0;exitPerimeter=0;entryX=0.5;entryY=0;entryDx=0;entryDy=0;" parent="1" source="XWVS49WZBapcxWvo3n6D-1" target="tJHlunaHGwE3_z8lCXSF-1" edge="1">
          <mxGeometry relative="1" as="geometry">
            <mxPoint x="431" y="159" as="sourcePoint" />
            <mxPoint x="366" y="240" as="targetPoint" />
          </mxGeometry>
        </mxCell>
        <mxCell id="ZWtKsEC65y6adEau3NHs-1" value="&lt;span style=&quot;border-bottom: 1px dotted&quot;&gt;PorcentajeDescuento&lt;/span&gt;" style="ellipse;whiteSpace=wrap;html=1;align=center;fillColor=#fff2cc;strokeColor=#d6b656;" parent="1" vertex="1">
          <mxGeometry x="635" y="610" width="135" height="50" as="geometry" />
        </mxCell>
        <mxCell id="ZWtKsEC65y6adEau3NHs-2" value="" style="endArrow=none;html=1;rounded=0;" parent="1" source="Wgol9Mu29P_vfPn5DOQJ-9" target="ZWtKsEC65y6adEau3NHs-1" edge="1">
          <mxGeometry relative="1" as="geometry">
            <mxPoint x="605" y="665" as="sourcePoint" />
            <mxPoint x="665" y="746" as="targetPoint" />
          </mxGeometry>
        </mxCell>
        <mxCell id="I2ptYlwfaWiKj3urTjwx-1" value="" style="fontSize=12;html=1;endArrow=ERoneToMany;startArrow=ERzeroToMany;rounded=0;exitX=0;exitY=0.5;exitDx=0;exitDy=0;" parent="1" source="tJHlunaHGwE3_z8lCXSF-1" target="iW_pZbnp_ivnEEt0ShDb-1" edge="1">
          <mxGeometry width="100" height="100" relative="1" as="geometry">
            <mxPoint x="302.5" y="240" as="sourcePoint" />
            <mxPoint x="377.5" y="510" as="targetPoint" />
          </mxGeometry>
        </mxCell>
        <mxCell id="I2ptYlwfaWiKj3urTjwx-2" value="" style="fontSize=12;html=1;endArrow=ERoneToMany;startArrow=ERzeroToMany;rounded=0;" parent="1" source="tJHlunaHGwE3_z8lCXSF-1" target="tJHlunaHGwE3_z8lCXSF-108" edge="1">
          <mxGeometry width="100" height="100" relative="1" as="geometry">
            <mxPoint x="300" y="260" as="sourcePoint" />
            <mxPoint x="124" y="180" as="targetPoint" />
            <Array as="points">
              <mxPoint x="500" y="220" />
            </Array>
          </mxGeometry>
        </mxCell>
        <mxCell id="lpPUyzaAOuLx09l9BWsa-1" value="&lt;span style=&quot;border-bottom: 1px dotted&quot;&gt;Cadena&lt;/span&gt;" style="ellipse;whiteSpace=wrap;html=1;align=center;fillColor=#fff2cc;strokeColor=#d6b656;" parent="1" vertex="1">
          <mxGeometry x="400" y="630" width="100" height="40" as="geometry" />
        </mxCell>
        <mxCell id="lpPUyzaAOuLx09l9BWsa-2" value="" style="endArrow=none;html=1;rounded=0;" parent="1" source="tJHlunaHGwE3_z8lCXSF-58" target="lpPUyzaAOuLx09l9BWsa-1" edge="1">
          <mxGeometry relative="1" as="geometry">
            <mxPoint x="400" y="590" as="sourcePoint" />
            <mxPoint x="378" y="603" as="targetPoint" />
          </mxGeometry>
        </mxCell>
        <mxCell id="lpPUyzaAOuLx09l9BWsa-3" value="&lt;span style=&quot;border-bottom: 1px dotted&quot;&gt;Precio&lt;/span&gt;" style="ellipse;whiteSpace=wrap;html=1;align=center;fillColor=#fff2cc;strokeColor=#d6b656;" parent="1" vertex="1">
          <mxGeometry x="-460" y="430" width="100" height="40" as="geometry" />
        </mxCell>
        <mxCell id="lpPUyzaAOuLx09l9BWsa-4" value="Ubicacion" style="whiteSpace=wrap;html=1;align=center;fillColor=#d5e8d4;strokeColor=#82b366;" parent="1" vertex="1">
          <mxGeometry x="-30" y="690" width="100" height="40" as="geometry" />
        </mxCell>
        <mxCell id="lpPUyzaAOuLx09l9BWsa-6" value="Id" style="ellipse;whiteSpace=wrap;html=1;align=center;fillColor=#fff2cc;strokeColor=#d6b656;" parent="1" vertex="1">
          <mxGeometry x="-100" y="630" width="100" height="40" as="geometry" />
        </mxCell>
        <mxCell id="lpPUyzaAOuLx09l9BWsa-7" value="" style="endArrow=none;html=1;rounded=0;" parent="1" source="lpPUyzaAOuLx09l9BWsa-6" target="lpPUyzaAOuLx09l9BWsa-4" edge="1">
          <mxGeometry relative="1" as="geometry">
            <mxPoint x="73" y="478" as="sourcePoint" />
            <mxPoint x="103" y="500" as="targetPoint" />
          </mxGeometry>
        </mxCell>
        <mxCell id="lpPUyzaAOuLx09l9BWsa-8" value="&lt;span style=&quot;border-bottom: 1px dotted&quot;&gt;Fila&lt;/span&gt;" style="ellipse;whiteSpace=wrap;html=1;align=center;fillColor=#fff2cc;strokeColor=#d6b656;" parent="1" vertex="1">
          <mxGeometry x="-80" y="760" width="100" height="40" as="geometry" />
        </mxCell>
        <mxCell id="lpPUyzaAOuLx09l9BWsa-9" value="" style="endArrow=none;html=1;rounded=0;" parent="1" source="lpPUyzaAOuLx09l9BWsa-8" target="lpPUyzaAOuLx09l9BWsa-4" edge="1">
          <mxGeometry relative="1" as="geometry">
            <mxPoint x="-4" y="679" as="sourcePoint" />
            <mxPoint x="13" y="700" as="targetPoint" />
          </mxGeometry>
        </mxCell>
        <mxCell id="lpPUyzaAOuLx09l9BWsa-10" value="&lt;span style=&quot;border-bottom: 1px dotted&quot;&gt;Columna&lt;/span&gt;" style="ellipse;whiteSpace=wrap;html=1;align=center;fillColor=#fff2cc;strokeColor=#d6b656;" parent="1" vertex="1">
          <mxGeometry x="40" y="760" width="100" height="40" as="geometry" />
        </mxCell>
        <mxCell id="lpPUyzaAOuLx09l9BWsa-11" value="" style="endArrow=none;html=1;rounded=0;" parent="1" source="lpPUyzaAOuLx09l9BWsa-10" target="lpPUyzaAOuLx09l9BWsa-4" edge="1">
          <mxGeometry relative="1" as="geometry">
            <mxPoint x="-7" y="771" as="sourcePoint" />
            <mxPoint x="16" y="740" as="targetPoint" />
          </mxGeometry>
        </mxCell>
        <mxCell id="lpPUyzaAOuLx09l9BWsa-12" value="Disponible" style="ellipse;whiteSpace=wrap;html=1;align=center;fillColor=#fff2cc;strokeColor=#d6b656;" parent="1" vertex="1">
          <mxGeometry x="-160" y="690" width="100" height="40" as="geometry" />
        </mxCell>
        <mxCell id="lpPUyzaAOuLx09l9BWsa-13" value="" style="endArrow=none;html=1;rounded=0;" parent="1" source="lpPUyzaAOuLx09l9BWsa-12" target="lpPUyzaAOuLx09l9BWsa-4" edge="1">
          <mxGeometry relative="1" as="geometry">
            <mxPoint x="-4" y="679" as="sourcePoint" />
            <mxPoint x="13" y="700" as="targetPoint" />
          </mxGeometry>
        </mxCell>
        <mxCell id="lpPUyzaAOuLx09l9BWsa-15" value="" style="endArrow=none;html=1;rounded=0;" parent="1" source="tJHlunaHGwE3_z8lCXSF-23" target="tJHlunaHGwE3_z8lCXSF-116" edge="1">
          <mxGeometry relative="1" as="geometry">
            <mxPoint x="345" y="770" as="sourcePoint" />
            <mxPoint x="50" y="590" as="targetPoint" />
          </mxGeometry>
        </mxCell>
        <mxCell id="lpPUyzaAOuLx09l9BWsa-16" value="" style="endArrow=none;html=1;rounded=0;" parent="1" source="Wgol9Mu29P_vfPn5DOQJ-9" target="tJHlunaHGwE3_z8lCXSF-58" edge="1">
          <mxGeometry relative="1" as="geometry">
            <mxPoint x="210" y="970" as="sourcePoint" />
            <mxPoint x="355" y="583" as="targetPoint" />
          </mxGeometry>
        </mxCell>
        <mxCell id="lpPUyzaAOuLx09l9BWsa-17" value="Criticas" style="whiteSpace=wrap;html=1;align=center;fillColor=#d5e8d4;strokeColor=#82b366;" parent="1" vertex="1">
          <mxGeometry x="20" y="130" width="100" height="40" as="geometry" />
        </mxCell>
        <mxCell id="lpPUyzaAOuLx09l9BWsa-18" value="Pelicula" style="whiteSpace=wrap;html=1;align=center;fillColor=#d5e8d4;strokeColor=#82b366;" parent="1" vertex="1">
          <mxGeometry x="290" y="230" width="100" height="40" as="geometry" />
        </mxCell>
        <mxCell id="lpPUyzaAOuLx09l9BWsa-19" value="Criticas" style="whiteSpace=wrap;html=1;align=center;fillColor=#d5e8d4;strokeColor=#82b366;" parent="1" vertex="1">
          <mxGeometry x="20" y="130" width="100" height="40" as="geometry" />
        </mxCell>
        <mxCell id="lpPUyzaAOuLx09l9BWsa-20" value="Pelicula" style="whiteSpace=wrap;html=1;align=center;fillColor=#d5e8d4;strokeColor=#82b366;" parent="1" vertex="1">
          <mxGeometry x="290" y="230" width="100" height="40" as="geometry" />
        </mxCell>
        <mxCell id="lpPUyzaAOuLx09l9BWsa-21" value="Criticas" style="whiteSpace=wrap;html=1;align=center;fillColor=#d5e8d4;strokeColor=#82b366;" parent="1" vertex="1">
          <mxGeometry x="20" y="130" width="100" height="40" as="geometry" />
        </mxCell>
        <mxCell id="lpPUyzaAOuLx09l9BWsa-22" value="Pelicula" style="whiteSpace=wrap;html=1;align=center;fillColor=#d5e8d4;strokeColor=#82b366;" parent="1" vertex="1">
          <mxGeometry x="290" y="230" width="100" height="40" as="geometry" />
        </mxCell>
        <mxCell id="lpPUyzaAOuLx09l9BWsa-23" value="Criticas" style="whiteSpace=wrap;html=1;align=center;fillColor=#d5e8d4;strokeColor=#82b366;" parent="1" vertex="1">
          <mxGeometry x="20" y="130" width="100" height="40" as="geometry" />
        </mxCell>
        <mxCell id="lpPUyzaAOuLx09l9BWsa-24" value="Pelicula" style="whiteSpace=wrap;html=1;align=center;fillColor=#d5e8d4;strokeColor=#82b366;" parent="1" vertex="1">
          <mxGeometry x="290" y="230" width="100" height="40" as="geometry" />
        </mxCell>
        <mxCell id="lpPUyzaAOuLx09l9BWsa-25" value="Criticas" style="whiteSpace=wrap;html=1;align=center;fillColor=#d5e8d4;strokeColor=#82b366;" parent="1" vertex="1">
          <mxGeometry x="20" y="130" width="100" height="40" as="geometry" />
        </mxCell>
        <mxCell id="lpPUyzaAOuLx09l9BWsa-26" value="Pelicula" style="whiteSpace=wrap;html=1;align=center;fillColor=#d5e8d4;strokeColor=#82b366;" parent="1" vertex="1">
          <mxGeometry x="290" y="230" width="100" height="40" as="geometry" />
        </mxCell>
        <mxCell id="lpPUyzaAOuLx09l9BWsa-27" value="Criticas" style="whiteSpace=wrap;html=1;align=center;fillColor=#d5e8d4;strokeColor=#82b366;" parent="1" vertex="1">
          <mxGeometry x="20" y="130" width="100" height="40" as="geometry" />
        </mxCell>
        <mxCell id="lpPUyzaAOuLx09l9BWsa-28" value="Pelicula" style="whiteSpace=wrap;html=1;align=center;fillColor=#d5e8d4;strokeColor=#82b366;" parent="1" vertex="1">
          <mxGeometry x="290" y="230" width="100" height="40" as="geometry" />
        </mxCell>
        <mxCell id="lpPUyzaAOuLx09l9BWsa-29" value="Criticas" style="whiteSpace=wrap;html=1;align=center;fillColor=#d5e8d4;strokeColor=#82b366;" parent="1" vertex="1">
          <mxGeometry x="20" y="130" width="100" height="40" as="geometry" />
        </mxCell>
        <mxCell id="lpPUyzaAOuLx09l9BWsa-30" value="Pelicula" style="whiteSpace=wrap;html=1;align=center;fillColor=#d5e8d4;strokeColor=#82b366;" parent="1" vertex="1">
          <mxGeometry x="290" y="230" width="100" height="40" as="geometry" />
        </mxCell>
        <mxCell id="lpPUyzaAOuLx09l9BWsa-31" value="Tipo" style="whiteSpace=wrap;html=1;align=center;fillColor=#d5e8d4;strokeColor=#82b366;" parent="1" vertex="1">
          <mxGeometry x="-27" y="400" width="100" height="40" as="geometry" />
        </mxCell>
        <mxCell id="lpPUyzaAOuLx09l9BWsa-32" value="Criticas" style="whiteSpace=wrap;html=1;align=center;fillColor=#d5e8d4;strokeColor=#82b366;" parent="1" vertex="1">
          <mxGeometry x="20" y="130" width="100" height="40" as="geometry" />
        </mxCell>
        <mxCell id="lpPUyzaAOuLx09l9BWsa-33" value="Pelicula" style="whiteSpace=wrap;html=1;align=center;fillColor=#d5e8d4;strokeColor=#82b366;" parent="1" vertex="1">
          <mxGeometry x="290" y="230" width="100" height="40" as="geometry" />
        </mxCell>
        <mxCell id="lpPUyzaAOuLx09l9BWsa-34" value="Tipo" style="whiteSpace=wrap;html=1;align=center;fillColor=#d5e8d4;strokeColor=#82b366;" parent="1" vertex="1">
          <mxGeometry x="-27" y="400" width="100" height="40" as="geometry" />
        </mxCell>
        <mxCell id="lpPUyzaAOuLx09l9BWsa-35" value="Criticas" style="whiteSpace=wrap;html=1;align=center;fillColor=#d5e8d4;strokeColor=#82b366;" parent="1" vertex="1">
          <mxGeometry x="20" y="130" width="100" height="40" as="geometry" />
        </mxCell>
        <mxCell id="lpPUyzaAOuLx09l9BWsa-36" value="Pelicula" style="whiteSpace=wrap;html=1;align=center;fillColor=#d5e8d4;strokeColor=#82b366;" parent="1" vertex="1">
          <mxGeometry x="290" y="230" width="100" height="40" as="geometry" />
        </mxCell>
        <mxCell id="lpPUyzaAOuLx09l9BWsa-37" value="Tipo" style="whiteSpace=wrap;html=1;align=center;fillColor=#d5e8d4;strokeColor=#82b366;" parent="1" vertex="1">
          <mxGeometry x="-27" y="400" width="100" height="40" as="geometry" />
        </mxCell>
        <mxCell id="lpPUyzaAOuLx09l9BWsa-38" value="Pelicula" style="whiteSpace=wrap;html=1;align=center;fillColor=#d5e8d4;strokeColor=#82b366;" parent="1" vertex="1">
          <mxGeometry x="290" y="230" width="100" height="40" as="geometry" />
        </mxCell>
        <mxCell id="lpPUyzaAOuLx09l9BWsa-39" value="Pelicula" style="whiteSpace=wrap;html=1;align=center;fillColor=#d5e8d4;strokeColor=#82b366;" parent="1" vertex="1">
          <mxGeometry x="290" y="230" width="100" height="40" as="geometry" />
        </mxCell>
        <mxCell id="lpPUyzaAOuLx09l9BWsa-40" value="Criticas" style="whiteSpace=wrap;html=1;align=center;fillColor=#d5e8d4;strokeColor=#82b366;" parent="1" vertex="1">
          <mxGeometry x="20" y="130" width="100" height="40" as="geometry" />
        </mxCell>
        <mxCell id="lpPUyzaAOuLx09l9BWsa-41" value="UbicacionEnSala" style="whiteSpace=wrap;html=1;align=center;fillColor=#d5e8d4;strokeColor=#82b366;" parent="1" vertex="1">
          <mxGeometry x="-30" y="690" width="100" height="40" as="geometry" />
        </mxCell>
        <mxCell id="lpPUyzaAOuLx09l9BWsa-43" value="Tipo" style="whiteSpace=wrap;html=1;align=center;fillColor=#d5e8d4;strokeColor=#82b366;" parent="1" vertex="1">
          <mxGeometry x="-327" y="330" width="100" height="40" as="geometry" />
        </mxCell>
        <mxCell id="lpPUyzaAOuLx09l9BWsa-44" value="&lt;span style=&quot;border-bottom: 1px dotted&quot;&gt;Fecha&lt;/span&gt;" style="ellipse;whiteSpace=wrap;html=1;align=center;fillColor=#fff2cc;strokeColor=#d6b656;" parent="1" vertex="1">
          <mxGeometry x="-390" y="260" width="100" height="40" as="geometry" />
        </mxCell>
        <mxCell id="lpPUyzaAOuLx09l9BWsa-45" value="Id" style="ellipse;whiteSpace=wrap;html=1;align=center;fillColor=#fff2cc;strokeColor=#d6b656;" parent="1" vertex="1">
          <mxGeometry x="-260" y="260" width="100" height="40" as="geometry" />
        </mxCell>
        <mxCell id="lpPUyzaAOuLx09l9BWsa-46" value="" style="endArrow=none;html=1;rounded=0;" parent="1" source="lpPUyzaAOuLx09l9BWsa-44" target="lpPUyzaAOuLx09l9BWsa-43" edge="1">
          <mxGeometry relative="1" as="geometry">
            <mxPoint x="-490" y="320" as="sourcePoint" />
            <mxPoint x="-330" y="320" as="targetPoint" />
          </mxGeometry>
        </mxCell>
        <mxCell id="lpPUyzaAOuLx09l9BWsa-47" value="" style="endArrow=none;html=1;rounded=0;" parent="1" source="lpPUyzaAOuLx09l9BWsa-45" target="lpPUyzaAOuLx09l9BWsa-43" edge="1">
          <mxGeometry relative="1" as="geometry">
            <mxPoint x="-490" y="320" as="sourcePoint" />
            <mxPoint x="-330" y="320" as="targetPoint" />
          </mxGeometry>
        </mxCell>
        <mxCell id="lpPUyzaAOuLx09l9BWsa-48" value="Tipo" style="whiteSpace=wrap;html=1;align=center;fillColor=#d5e8d4;strokeColor=#82b366;" parent="1" vertex="1">
          <mxGeometry x="-327" y="330" width="100" height="40" as="geometry" />
        </mxCell>
        <mxCell id="lpPUyzaAOuLx09l9BWsa-49" value="Tipo" style="whiteSpace=wrap;html=1;align=center;fillColor=#d5e8d4;strokeColor=#82b366;" parent="1" vertex="1">
          <mxGeometry x="-327" y="330" width="100" height="40" as="geometry" />
        </mxCell>
        <mxCell id="lpPUyzaAOuLx09l9BWsa-50" value="Funcion" style="whiteSpace=wrap;html=1;align=center;fillColor=#d5e8d4;strokeColor=#82b366;" parent="1" vertex="1">
          <mxGeometry x="-327" y="330" width="100" height="40" as="geometry" />
        </mxCell>
        <mxCell id="lpPUyzaAOuLx09l9BWsa-51" value="" style="fontSize=12;html=1;endArrow=ERzeroToMany;startArrow=ERmandOne;rounded=0;" parent="1" source="lpPUyzaAOuLx09l9BWsa-39" target="lpPUyzaAOuLx09l9BWsa-50" edge="1">
          <mxGeometry width="100" height="100" relative="1" as="geometry">
            <mxPoint x="400" y="270" as="sourcePoint" />
            <mxPoint x="600" y="270" as="targetPoint" />
          </mxGeometry>
        </mxCell>
        <mxCell id="lpPUyzaAOuLx09l9BWsa-52" value="Entrada" style="whiteSpace=wrap;html=1;align=center;fillColor=#d5e8d4;strokeColor=#82b366;" parent="1" vertex="1">
          <mxGeometry x="-327" y="470" width="100" height="40" as="geometry" />
        </mxCell>
        <mxCell id="lpPUyzaAOuLx09l9BWsa-53" value="" style="fontSize=12;html=1;endArrow=ERzeroToMany;startArrow=ERmandOne;rounded=0;entryX=0.5;entryY=0;entryDx=0;entryDy=0;" parent="1" source="lpPUyzaAOuLx09l9BWsa-50" target="lpPUyzaAOuLx09l9BWsa-52" edge="1">
          <mxGeometry width="100" height="100" relative="1" as="geometry">
            <mxPoint x="300" y="268" as="sourcePoint" />
            <mxPoint x="-217" y="352" as="targetPoint" />
          </mxGeometry>
        </mxCell>
        <mxCell id="lpPUyzaAOuLx09l9BWsa-54" value="" style="endArrow=none;html=1;rounded=0;" parent="1" source="lpPUyzaAOuLx09l9BWsa-3" target="lpPUyzaAOuLx09l9BWsa-52" edge="1">
          <mxGeometry relative="1" as="geometry">
            <mxPoint x="-16" y="379" as="sourcePoint" />
            <mxPoint x="11" y="410" as="targetPoint" />
          </mxGeometry>
        </mxCell>
        <mxCell id="lpPUyzaAOuLx09l9BWsa-55" value="" style="endArrow=none;html=1;rounded=0;" parent="1" source="tJHlunaHGwE3_z8lCXSF-23" target="lpPUyzaAOuLx09l9BWsa-52" edge="1">
          <mxGeometry relative="1" as="geometry">
            <mxPoint x="-359" y="472" as="sourcePoint" />
            <mxPoint x="-317" y="485" as="targetPoint" />
          </mxGeometry>
        </mxCell>
        <mxCell id="lpPUyzaAOuLx09l9BWsa-56" value="Id" style="ellipse;whiteSpace=wrap;html=1;align=center;fillColor=#fff2cc;strokeColor=#d6b656;" parent="1" vertex="1">
          <mxGeometry x="-460" y="510" width="100" height="40" as="geometry" />
        </mxCell>
        <mxCell id="lpPUyzaAOuLx09l9BWsa-57" value="" style="endArrow=none;html=1;rounded=0;" parent="1" source="lpPUyzaAOuLx09l9BWsa-52" target="lpPUyzaAOuLx09l9BWsa-56" edge="1">
          <mxGeometry relative="1" as="geometry">
            <mxPoint x="-218" y="309" as="sourcePoint" />
            <mxPoint x="-248" y="340" as="targetPoint" />
          </mxGeometry>
        </mxCell>
        <mxCell id="ZJq285tSZi3AGJxZfNzo-2" value="" style="fontSize=12;html=1;endArrow=ERoneToMany;rounded=0;exitX=0.5;exitY=1;exitDx=0;exitDy=0;" edge="1" parent="1" source="tJHlunaHGwE3_z8lCXSF-23" target="lpPUyzaAOuLx09l9BWsa-41">
          <mxGeometry width="100" height="100" relative="1" as="geometry">
            <mxPoint x="263" y="570" as="sourcePoint" />
            <mxPoint x="80" y="570" as="targetPoint" />
          </mxGeometry>
        </mxCell>
      </root>
    </mxGraphModel>
  </diagram>
</mxfile>
